<?xml version="1.0" encoding="UTF-8" standalone="no"?><!DOCTYPE svg PUBLIC "-//W3C//DTD SVG 1.1//EN" "http://www.w3.org/Graphics/SVG/1.1/DTD/svg11.dtd"><svg width="100%" height="100%" viewBox="0 0 66 66" version="1.1" xmlns="http://www.w3.org/2000/svg" xmlns:xlink="http://www.w3.org/1999/xlink" xml:space="preserve" xmlns:serif="http://www.serif.com/" style="fill-rule:evenodd;clip-rule:evenodd;stroke-linejoin:round;stroke-miterlimit:2;"><rect id="Artboard1" x="0" y="0" width="65.383" height="65.383" style="fill:none;"/><g id="Artboard11" serif:id="Artboard1"><g><g><path d="M12.483,21.292c0.155,0.929 0.513,1.516 0.867,1.887c0.842,5.608 5.529,10.813 9.817,10.813c4.996,-0 9.545,-5.634 10.421,-10.8c0.362,-0.367 0.724,-0.959 0.883,-1.9c0.283,-1.05 0.65,-2.875 0.008,-3.734c-0.033,-0.041 -0.071,-0.087 -0.104,-0.121c0.604,-2.204 1.367,-6.762 -1.363,-9.866c-0.241,-0.309 -1.775,-2.138 -5.045,-3.104l-1.563,-0.538c-2.575,-0.796 -4.192,-0.975 -4.262,-0.983c-0.117,-0.009 -0.238,-0 -0.35,0.029c-0.088,0.025 -0.396,0.108 -0.634,0.075c-0.616,-0.088 -1.541,0.229 -1.704,0.292c-0.212,0.087 -5.2,2.083 -6.712,6.729c-0.142,0.375 -0.746,2.35 0.058,7.191c-0.121,0.084 -0.229,0.184 -0.321,0.305c-0.65,0.85 -0.283,2.675 0.004,3.725Z" style="fill:#6f7170;fill-rule:nonzero;"/><path d="M32.433,56.642c-0.92,-0.517 -1.921,-1.013 -2.987,-1.484c-0.517,-0.229 -1.042,-0.445 -1.563,-0.65c-0.408,-0.154 -0.891,-0.354 -1.229,-0.441l-4.941,-1.334l9.245,-18.825l3.963,2.5c0.837,0.525 1.454,0.971 2.129,1.467l0.142,0.104c0.671,0.496 1.329,1.004 1.975,1.529c1.404,1.134 2.646,2.242 3.8,3.388c0.087,0.087 0.171,0.166 0.258,0.254c0.388,-0.429 0.767,-0.813 1.146,-1.225c-0.483,-1.438 -1.071,-2.767 -1.788,-3.833c0,-0 -1.016,-1.388 -3.429,-2.313c0,0 -0.204,-0.062 -0.517,-0.166c-2.145,-1.005 -4.183,-1.651 -4.183,-1.651c-0.437,-0.158 -0.821,-0.312 -1.166,-0.462c-1.459,-0.721 -2.671,-1.533 -2.921,-2.3c-0,0 0.841,8.146 -6.279,8.338l-0.992,-0.046c-6.454,-0.575 -6.884,-8.309 -6.884,-8.309c-0.675,2.121 -8.791,4.588 -8.791,4.588c-2.413,0.925 -3.434,2.317 -3.434,2.317c-3.566,5.291 -3.987,17.066 -3.987,17.066c0.046,2.692 1.208,2.971 1.208,2.971c8.204,3.663 21.075,4.308 21.075,4.308c0.696,0.017 1.342,-0.02 1.988,-0.058l0.017,0.067c-0,-0 6.283,-0.321 12.87,-1.763l-0.804,-1.054c-0.654,-0.862 -2.116,-1.975 -3.921,-2.983Z" style="fill:#6f7170;fill-rule:nonzero;"/><path d="M30.092,31.546c0.087,-0.113 0.183,-0.225 0.275,-0.35c-0.021,-0.075 -0.025,-0.113 -0.025,-0.113c-0.079,0.163 -0.171,0.3 -0.25,0.463Z" style="fill:#6f7170;fill-rule:nonzero;"/><path d="M16.25,31.171l-0.021,-0.088l-0.016,0.092c0.004,-0.017 0.02,-0.033 0.024,-0.05c0.005,0.004 0.009,0.021 0.013,0.046Z" style="fill:#6f7170;fill-rule:nonzero;"/><path d="M57.842,34.95c-2.338,1.65 -4.517,3.517 -6.592,5.479c-2.079,1.975 -4.05,4.054 -5.946,6.2c-0.704,0.8 -1.387,1.608 -2.067,2.421c-0.008,-0.013 -0.016,-0.025 -0.02,-0.038c-1,-1.333 -2.084,-2.52 -3.209,-3.633c-1.125,-1.108 -2.291,-2.133 -3.491,-3.108c-0.604,-0.484 -1.213,-0.959 -1.834,-1.425c-0.645,-0.467 -1.212,-0.888 -2.004,-1.388l-4.925,10.021c0.45,0.121 1.104,0.375 1.659,0.592c0.587,0.225 1.162,0.466 1.737,0.721c1.15,0.508 2.271,1.062 3.342,1.658c2.116,1.183 4.087,2.625 5.212,4.096l3.788,4.966l2.179,-4.725c1.096,-2.366 2.408,-4.841 3.754,-7.2c1.358,-2.375 2.808,-4.704 4.379,-6.95c1.571,-2.245 3.254,-4.416 5.138,-6.416c1.883,-1.988 3.962,-3.838 6.441,-5.15c-2.691,0.8 -5.208,2.246 -7.541,3.879Z" style="fill:#6f7170;fill-rule:nonzero;"/></g></g></g></svg>