<svg id="Layer_1" enable-background="new 0 0 510 510" height="512" viewBox="0 0 510 510" width="512" xmlns="http://www.w3.org/2000/svg"><g id="XMLID_2171_"><path id="XMLID_2178_" d="m255 307.5c-21.234 0-39.068 14.788-43.774 34.603 27.478 13.865 60.058 13.872 87.549 0-4.707-19.815-22.541-34.603-43.775-34.603z"/><path id="XMLID_2189_" d="m255 157.5c-53.762 0-97.5 43.738-97.5 97.5 0 26.729 10.814 50.978 28.295 68.609 5.995-14.307 16.308-26.363 29.292-34.56-7.839-9.175-12.587-21.065-12.587-34.049 0-28.949 23.551-52.5 52.5-52.5 28.948 0 52.5 23.551 52.5 52.5 0 12.984-4.749 24.874-12.587 34.049 12.985 8.197 23.297 20.253 29.292 34.56 17.48-17.63 28.295-41.879 28.295-68.609 0-53.762-43.738-97.5-97.5-97.5z"/><circle id="XMLID_2266_" cx="255" cy="255" r="22.5"/><path id="XMLID_2274_" d="m510 297.707v-85.414l-67.57-11.262c-4.035-14.043-9.643-27.561-16.75-40.382l39.831-55.763-60.397-60.397-55.763 39.831c-12.819-7.106-26.34-12.714-40.382-16.75l-11.262-67.57h-85.414l-11.262 67.57c-14.042 4.036-27.563 9.645-40.382 16.75l-55.763-39.831-60.397 60.397 39.831 55.763c-7.106 12.82-12.715 26.34-16.75 40.382l-67.57 11.262v85.414l67.57 11.262c4.036 14.042 9.644 27.563 16.75 40.382l-39.831 55.763 60.397 60.397 55.763-39.831c12.821 7.107 26.339 12.715 40.382 16.75l11.262 67.57h85.414l11.262-67.57c14.042-4.035 27.563-9.644 40.382-16.75l55.763 39.831 60.397-60.397-39.831-55.763c7.106-12.819 12.715-26.34 16.75-40.382zm-255 84.793c-70.304 0-127.5-57.196-127.5-127.5s57.196-127.5 127.5-127.5 127.5 57.196 127.5 127.5-57.196 127.5-127.5 127.5z"/></g></svg>