<?xml version="1.0" encoding="UTF-8" standalone="no"?><!DOCTYPE svg PUBLIC "-//W3C//DTD SVG 1.1//EN" "http://www.w3.org/Graphics/SVG/1.1/DTD/svg11.dtd"><svg width="100%" height="100%" viewBox="0 0 2406 674" version="1.1" xmlns="http://www.w3.org/2000/svg" xmlns:xlink="http://www.w3.org/1999/xlink" xml:space="preserve" xmlns:serif="http://www.serif.com/" style="fill-rule:evenodd;clip-rule:evenodd;stroke-linejoin:round;stroke-miterlimit:2;"><rect id="Artboard2" x="-0" y="-0" width="2405.66" height="673.683" style="fill:none;"/><clipPath id="_clip1"><rect x="-0" y="-0" width="2405.66" height="673.683"/></clipPath><g clip-path="url(#_clip1)"><path d="M572.724,487.534c-320.405,-0.029 -571.383,-58.114 -571.376,-132.238c0.004,-44.44 88.939,-84.083 244.001,-108.76c0.229,-0.038 0.461,-0.057 0.694,-0.057c2.339,0 4.264,1.925 4.264,4.264c-0,2.097 -1.546,3.898 -3.618,4.215c-146.068,23.248 -236.81,61.696 -236.813,100.339c-0.006,67.03 257.746,123.682 562.848,123.709c305.102,0.028 562.865,-56.577 562.871,-123.608c0.003,-38.805 -91.311,-77.363 -238.309,-100.623c-2.069,-0.321 -3.61,-2.12 -3.61,-4.214c-0,-2.339 1.925,-4.264 4.264,-4.264c0.227,-0 0.454,0.018 0.679,0.054c156.025,24.689 245.508,64.436 245.504,109.048c-0.007,74.124 -250.995,132.164 -571.399,132.135Z" style="fill:#3f3d56;fill-rule:nonzero;"/><path d="M289.251,512.404c58.772,100.663 166.917,162.75 283.481,162.75c117.13,0 225.716,-62.692 284.282,-164.129c-189.086,10.863 -378.626,11.323 -567.763,1.379Z" style="fill:#31986a;fill-rule:nonzero;"/><path d="M888.451,419.862c8.357,-29.293 12.596,-59.607 12.596,-90.069c-0,-180.112 -148.21,-328.321 -328.322,-328.321c-180.112,-0 -328.322,148.209 -328.322,328.321c0,31.631 4.571,63.096 13.571,93.419c209.419,26.154 421.348,25.027 630.477,-3.35Z" style="fill:#31986a;fill-rule:nonzero;"/><circle cx="649.515" cy="146.407" r="38.377" style="fill:#fff;"/><circle cx="449.081" cy="304.168" r="63.961" style="fill:#fff;"/><circle cx="572.762" cy="606.929" r="38.377" style="fill:#fff;"/><g><g><path d="M1301.22,517.83c-0,4.098 -0.698,7.89 -2.093,11.377c-1.395,3.488 -3.356,6.495 -5.884,9.024c-2.529,2.528 -5.558,4.511 -9.089,5.95c-3.531,1.438 -7.389,2.157 -11.573,2.157c-2.18,0 -4.25,-0.239 -6.212,-0.719c-1.962,-0.479 -3.771,-1.133 -5.427,-1.961c-1.657,-0.829 -3.095,-1.744 -4.316,-2.747c-1.22,-1.002 -2.136,-2.027 -2.746,-3.073l0.131,2.746l-0,4.447l-11.246,-0l-0,-101.61l11.246,-0l-0,54.924c0.697,-1.046 1.635,-2.114 2.812,-3.204c1.177,-1.09 2.571,-2.092 4.184,-3.008c1.613,-0.915 3.422,-1.678 5.427,-2.288c2.005,-0.61 4.229,-0.916 6.67,-0.916c4.184,0 7.999,0.676 11.442,2.027c3.444,1.352 6.408,3.27 8.893,5.754c2.484,2.485 4.402,5.515 5.754,9.089c1.351,3.574 2.027,7.585 2.027,12.031Zm-12.162,-0.261c-0,-2.529 -0.392,-4.861 -1.177,-6.997c-0.785,-2.136 -1.918,-3.988 -3.4,-5.558c-1.482,-1.569 -3.269,-2.811 -5.362,-3.727c-2.092,-0.915 -4.446,-1.373 -7.061,-1.373c-2.616,0 -5.035,0.458 -7.258,1.373c-2.223,0.916 -4.12,2.158 -5.689,3.727c-1.569,1.57 -2.812,3.422 -3.727,5.558c-0.915,2.136 -1.373,4.468 -1.373,6.997c-0,2.528 0.458,4.882 1.373,7.061c0.915,2.18 2.158,4.054 3.727,5.623c1.569,1.57 3.466,2.812 5.689,3.727c2.223,0.916 4.642,1.374 7.258,1.374c2.615,-0 4.969,-0.458 7.061,-1.374c2.093,-0.915 3.88,-2.179 5.362,-3.792c1.482,-1.613 2.615,-3.487 3.4,-5.623c0.785,-2.136 1.177,-4.468 1.177,-6.996Z" style="fill-rule:nonzero;"/><path d="M1326.45,571.316l-11.247,-0c1.221,-2.528 2.376,-4.948 3.466,-7.258c1.09,-2.31 2.179,-4.664 3.269,-7.062c1.09,-2.397 2.201,-4.882 3.335,-7.454c1.133,-2.571 2.397,-5.339 3.792,-8.304c-2.005,-3.923 -4.054,-8.042 -6.146,-12.358c-2.092,-4.315 -4.185,-8.652 -6.277,-13.011c-2.092,-4.36 -4.163,-8.719 -6.212,-13.078c-2.049,-4.359 -4.076,-8.5 -6.081,-12.423l12.162,-0c3.139,6.19 5.732,11.421 7.781,15.693c2.049,4.271 3.749,7.955 5.1,11.05c1.351,3.095 2.441,5.732 3.269,7.912c0.829,2.179 1.548,4.184 2.158,6.015c0.698,-1.831 1.46,-3.836 2.289,-6.015c0.828,-2.18 1.918,-4.817 3.269,-7.912c1.351,-3.095 3.051,-6.779 5.1,-11.05c2.049,-4.272 4.643,-9.503 7.781,-15.693l12.162,-0l-38.97,80.948Z" style="fill-rule:nonzero;"/><path d="M1462.2,455.452l-5.1,11.638c-3.574,-1.307 -7.127,-2.353 -10.658,-3.138c-3.531,-0.785 -6.909,-1.177 -10.135,-1.177c-5.492,-0 -9.873,1.133 -13.142,3.4c-3.269,2.267 -4.904,5.144 -4.904,8.631c-0,2.964 1.177,5.34 3.531,7.127c2.354,1.787 5.274,3.4 8.762,4.839c3.487,1.438 7.279,2.877 11.377,4.315c4.097,1.439 7.89,3.291 11.377,5.558c3.487,2.267 6.408,5.122 8.762,8.566c2.354,3.443 3.53,7.868 3.53,13.273c0,4.185 -0.762,7.955 -2.288,11.312c-1.526,3.356 -3.792,6.255 -6.8,8.696c-3.008,2.441 -6.757,4.316 -11.247,5.623c-4.489,1.308 -9.742,1.962 -15.758,1.962c-3.836,-0 -7.301,-0.262 -10.396,-0.785c-3.095,-0.523 -5.885,-1.198 -8.369,-2.027c-2.485,-0.828 -4.665,-1.722 -6.539,-2.681c-1.875,-0.959 -3.466,-1.83 -4.773,-2.615l6.277,-12.423c3.487,2.005 7.367,3.618 11.639,4.838c4.271,1.221 8.151,1.831 11.638,1.831c1.744,0 3.902,-0.218 6.473,-0.654c2.572,-0.436 5.035,-1.199 7.389,-2.288c2.354,-1.09 4.381,-2.55 6.081,-4.381c1.7,-1.831 2.55,-4.141 2.55,-6.931c0,-2.528 -0.676,-4.686 -2.027,-6.473c-1.351,-1.788 -3.138,-3.357 -5.362,-4.708c-2.223,-1.351 -4.751,-2.572 -7.584,-3.662c-2.834,-1.09 -5.733,-2.223 -8.697,-3.4c-2.964,-1.177 -5.863,-2.419 -8.696,-3.727c-2.833,-1.308 -5.362,-2.899 -7.585,-4.773c-2.223,-1.874 -4.01,-4.054 -5.362,-6.539c-1.351,-2.484 -2.026,-5.47 -2.026,-8.958c-0,-3.225 0.653,-6.407 1.961,-9.546c1.308,-3.138 3.269,-5.928 5.885,-8.369c2.615,-2.441 5.863,-4.403 9.742,-5.885c3.88,-1.482 8.392,-2.223 13.535,-2.223c3.139,-0 6.212,0.261 9.22,0.784c3.008,0.523 5.732,1.112 8.173,1.766c2.441,0.654 4.512,1.286 6.212,1.896c1.7,0.61 2.811,1.046 3.334,1.308Z" style="fill-rule:nonzero;"/><path d="M1473.57,517.569c-0,-3.924 0.762,-7.629 2.288,-11.116c1.526,-3.487 3.596,-6.517 6.212,-9.089c2.615,-2.572 5.688,-4.62 9.219,-6.146c3.531,-1.526 7.345,-2.289 11.443,-2.289c4.097,0 7.912,0.763 11.442,2.289c3.531,1.526 6.583,3.574 9.154,6.146c2.572,2.572 4.577,5.602 6.016,9.089c1.438,3.487 2.158,7.192 2.158,11.116c-0,3.923 -0.72,7.628 -2.158,11.115c-1.439,3.487 -3.444,6.539 -6.016,9.154c-2.571,2.616 -5.623,4.686 -9.154,6.212c-3.53,1.526 -7.388,2.288 -11.573,2.288c-4.01,0 -7.781,-0.697 -11.312,-2.092c-3.531,-1.395 -6.604,-3.356 -9.219,-5.885c-2.616,-2.528 -4.686,-5.557 -6.212,-9.088c-1.526,-3.531 -2.288,-7.433 -2.288,-11.704Zm11.115,0.13c0,2.441 0.458,4.73 1.373,6.866c0.916,2.136 2.18,4.01 3.793,5.623c1.613,1.613 3.487,2.877 5.623,3.792c2.136,0.916 4.424,1.374 6.865,1.374c2.442,-0 4.752,-0.458 6.931,-1.374c2.18,-0.915 4.076,-2.179 5.689,-3.792c1.613,-1.613 2.899,-3.487 3.858,-5.623c0.959,-2.136 1.438,-4.425 1.438,-6.866c0,-2.441 -0.479,-4.751 -1.438,-6.931c-0.959,-2.179 -2.245,-4.075 -3.858,-5.688c-1.613,-1.613 -3.509,-2.877 -5.689,-3.793c-2.179,-0.915 -4.489,-1.373 -6.931,-1.373c-2.441,0 -4.729,0.458 -6.865,1.373c-2.136,0.916 -4.01,2.18 -5.623,3.793c-1.613,1.613 -2.877,3.509 -3.793,5.688c-0.915,2.18 -1.373,4.49 -1.373,6.931Z" style="fill-rule:nonzero;"/><path d="M1615.72,538.231c-1.046,0.784 -2.506,1.634 -4.381,2.55c-1.874,0.915 -4.076,1.765 -6.604,2.55c-2.528,0.784 -5.34,1.438 -8.435,1.961c-3.095,0.523 -6.386,0.785 -9.873,0.785c-7.41,-0 -14.058,-1.286 -19.943,-3.858c-5.884,-2.572 -10.876,-6.037 -14.973,-10.396c-4.098,-4.359 -7.236,-9.416 -9.416,-15.17c-2.179,-5.754 -3.269,-11.857 -3.269,-18.308c-0,-7.149 1.286,-13.731 3.858,-19.747c2.572,-6.015 6.081,-11.202 10.527,-15.561c4.446,-4.36 9.655,-7.76 15.627,-10.201c5.972,-2.441 12.315,-3.661 19.028,-3.661c2.528,-0 5.1,0.174 7.715,0.523c2.616,0.348 5.078,0.828 7.389,1.438c2.31,0.611 4.359,1.33 6.146,2.158c1.787,0.828 3.16,1.678 4.119,2.55c-0.697,1.046 -1.242,1.918 -1.634,2.615c-0.393,0.698 -0.807,1.417 -1.243,2.158c-0.436,0.741 -0.915,1.591 -1.438,2.55c-0.523,0.959 -1.221,2.223 -2.092,3.793c-1.134,-0.785 -2.463,-1.439 -3.989,-1.962c-1.526,-0.523 -3.117,-0.959 -4.773,-1.308c-1.657,-0.348 -3.335,-0.61 -5.035,-0.784c-1.7,-0.175 -3.247,-0.262 -4.642,-0.262c-5.057,0 -9.743,0.937 -14.058,2.812c-4.316,1.874 -8.043,4.402 -11.181,7.585c-3.139,3.182 -5.602,6.865 -7.389,11.05c-1.787,4.185 -2.681,8.544 -2.681,13.077c0,4.446 0.85,8.718 2.55,12.816c1.7,4.097 4.054,7.759 7.062,10.985c3.008,3.225 6.626,5.797 10.854,7.715c4.228,1.918 8.871,2.877 13.927,2.877c2.703,0 5.318,-0.261 7.847,-0.784c2.528,-0.524 4.816,-1.134 6.865,-1.831c2.049,-0.698 3.749,-1.395 5.1,-2.093c1.352,-0.697 2.158,-1.22 2.42,-1.569l6.015,12.947Z" style="fill-rule:nonzero;"/></g><g><g><path d="M1402.3,134.449l-13.601,31.037c-9.531,-3.487 -19.005,-6.277 -28.421,-8.369c-9.415,-2.093 -18.424,-3.139 -27.026,-3.139c-14.647,0 -26.329,3.022 -35.047,9.067c-8.718,6.045 -13.077,13.717 -13.077,23.016c-0,7.904 3.138,14.24 9.415,19.005c6.277,4.766 14.066,9.067 23.365,12.903c9.299,3.836 19.412,7.672 30.339,11.508c10.927,3.836 21.04,8.777 30.339,14.821c9.3,6.045 17.088,13.659 23.365,22.842c6.277,9.183 9.416,20.981 9.416,35.395c-0,11.16 -2.035,21.215 -6.103,30.165c-4.069,8.951 -10.113,16.681 -18.134,23.19c-8.021,6.51 -18.017,11.508 -29.99,14.996c-11.973,3.487 -25.98,5.231 -42.022,5.231c-10.229,-0 -19.47,-0.698 -27.724,-2.093c-8.253,-1.395 -15.692,-3.196 -22.318,-5.405c-6.626,-2.209 -12.438,-4.592 -17.436,-7.149c-4.999,-2.557 -9.242,-4.882 -12.729,-6.974l16.739,-33.129c9.299,5.347 19.645,9.648 31.037,12.902c11.391,3.255 21.737,4.883 31.036,4.883c4.65,-0 10.404,-0.582 17.262,-1.744c6.859,-1.162 13.426,-3.197 19.703,-6.103c6.277,-2.906 11.683,-6.8 16.216,-11.682c4.533,-4.882 6.8,-11.043 6.8,-18.483c0,-6.742 -1.802,-12.496 -5.405,-17.261c-3.604,-4.766 -8.37,-8.951 -14.298,-12.555c-5.928,-3.603 -12.67,-6.858 -20.226,-9.764c-7.556,-2.906 -15.286,-5.928 -23.19,-9.067c-7.905,-3.138 -15.635,-6.451 -23.191,-9.939c-7.555,-3.487 -14.297,-7.73 -20.226,-12.728c-5.928,-4.998 -10.694,-10.811 -14.297,-17.436c-3.604,-6.626 -5.406,-14.589 -5.406,-23.888c0,-8.602 1.744,-17.088 5.231,-25.457c3.487,-8.369 8.718,-15.809 15.693,-22.319c6.974,-6.509 15.634,-11.74 25.98,-15.692c10.346,-3.952 22.377,-5.929 36.093,-5.929c8.37,0 16.565,0.698 24.585,2.093c8.021,1.395 15.286,2.964 21.796,4.708c6.509,1.743 12.031,3.429 16.564,5.056c4.534,1.628 7.498,2.79 8.893,3.487Z" style="fill-rule:nonzero;stroke:#000;stroke-width:8.33px;"/><path d="M1432.64,300.094c-0,-10.462 2.034,-20.342 6.103,-29.641c4.068,-9.3 9.59,-17.379 16.564,-24.237c6.975,-6.858 15.17,-12.322 24.585,-16.39c9.416,-4.068 19.587,-6.103 30.514,-6.103c10.927,0 21.098,2.035 30.513,6.103c9.416,4.068 17.553,9.532 24.411,16.39c6.858,6.858 12.206,14.937 16.042,24.237c3.836,9.299 5.754,19.179 5.754,29.641c-0,10.462 -1.918,20.343 -5.754,29.642c-3.836,9.299 -9.184,17.436 -16.042,24.411c-6.858,6.974 -14.995,12.496 -24.411,16.564c-9.415,4.069 -19.703,6.103 -30.862,6.103c-10.694,0 -20.749,-1.86 -30.165,-5.58c-9.415,-3.719 -17.61,-8.95 -24.585,-15.692c-6.974,-6.742 -12.496,-14.821 -16.564,-24.237c-4.069,-9.415 -6.103,-19.819 -6.103,-31.211Zm29.642,0.349c-0,6.51 1.22,12.612 3.661,18.308c2.441,5.696 5.812,10.694 10.113,14.995c4.301,4.301 9.3,7.672 14.995,10.113c5.696,2.441 11.799,3.662 18.309,3.662c6.509,0 12.67,-1.221 18.482,-3.662c5.812,-2.441 10.869,-5.812 15.17,-10.113c4.301,-4.301 7.73,-9.299 10.287,-14.995c2.557,-5.696 3.836,-11.798 3.836,-18.308c0,-6.51 -1.279,-12.67 -3.836,-18.482c-2.557,-5.813 -5.986,-10.869 -10.287,-15.17c-4.301,-4.301 -9.358,-7.672 -15.17,-10.113c-5.812,-2.441 -11.973,-3.662 -18.482,-3.662c-6.51,0 -12.613,1.221 -18.309,3.662c-5.695,2.441 -10.694,5.812 -14.995,10.113c-4.301,4.301 -7.672,9.357 -10.113,15.17c-2.441,5.812 -3.661,11.972 -3.661,18.482Z" style="fill-rule:nonzero;stroke:#000;stroke-width:8.33px;"/><path d="M1811.71,355.193c-2.79,2.092 -6.684,4.359 -11.682,6.8c-4.999,2.441 -10.869,4.708 -17.611,6.8c-6.742,2.093 -14.24,3.836 -22.493,5.231c-8.253,1.395 -17.029,2.093 -26.329,2.093c-19.761,-0 -37.488,-3.43 -53.18,-10.288c-15.693,-6.858 -29.003,-16.099 -39.929,-27.724c-10.927,-11.624 -19.297,-25.108 -25.109,-40.452c-5.812,-15.344 -8.718,-31.618 -8.718,-48.821c0,-19.064 3.429,-36.617 10.288,-52.658c6.858,-16.041 16.215,-29.874 28.072,-41.498c11.857,-11.625 25.748,-20.692 41.673,-27.201c15.925,-6.51 32.838,-9.764 50.739,-9.764c6.742,-0 13.601,0.465 20.575,1.394c6.975,0.93 13.542,2.209 19.703,3.836c6.161,1.628 11.624,3.546 16.39,5.754c4.766,2.209 8.428,4.476 10.985,6.801c-1.86,2.789 -3.313,5.114 -4.359,6.974c-1.046,1.86 -2.15,3.778 -3.313,5.754c-1.162,1.976 -2.441,4.243 -3.836,6.8c-1.395,2.558 -3.254,5.929 -5.579,10.113c-3.023,-2.092 -6.568,-3.836 -10.636,-5.231c-4.069,-1.394 -8.312,-2.557 -12.729,-3.487c-4.417,-0.93 -8.892,-1.627 -13.426,-2.092c-4.533,-0.465 -8.66,-0.698 -12.38,-0.698c-13.484,0 -25.98,2.5 -37.488,7.498c-11.508,4.998 -21.446,11.74 -29.816,20.226c-8.369,8.486 -14.937,18.308 -19.703,29.467c-4.766,11.16 -7.149,22.784 -7.149,34.873c0,11.857 2.267,23.248 6.8,34.175c4.534,10.927 10.811,20.691 18.832,29.293c8.02,8.602 17.668,15.46 28.944,20.575c11.275,5.115 23.655,7.672 37.139,7.672c7.207,-0 14.182,-0.697 20.924,-2.092c6.742,-1.395 12.845,-3.023 18.308,-4.883c5.463,-1.859 9.997,-3.719 13.6,-5.579c3.604,-1.86 5.754,-3.255 6.452,-4.185l16.041,34.524Z" style="fill-rule:nonzero;stroke:#000;stroke-width:8.33px;"/><path d="M1830.89,171.763c0,-5.58 2.034,-10.229 6.103,-13.949c4.068,-3.72 8.427,-5.58 13.077,-5.58c4.65,0 8.951,1.86 12.903,5.58c3.952,3.72 5.928,8.369 5.928,13.949c0,5.58 -1.976,10.171 -5.928,13.775c-3.952,3.603 -8.253,5.405 -12.903,5.405c-4.65,0 -9.009,-1.802 -13.077,-5.405c-4.069,-3.604 -6.103,-8.195 -6.103,-13.775Zm33.478,201.564l-29.642,-0l-0,-145.768l29.642,0l-0,145.768Z" style="fill-rule:nonzero;stroke:#000;stroke-width:8.33px;"/><path d="M2029.66,356.239c-6.975,6.277 -15.46,11.276 -25.457,14.995c-9.997,3.72 -20.226,5.58 -30.688,5.58c-10.694,0 -20.749,-2.034 -30.165,-6.103c-9.415,-4.068 -17.611,-9.532 -24.585,-16.39c-6.975,-6.858 -12.496,-14.937 -16.565,-24.236c-4.068,-9.3 -6.102,-19.18 -6.102,-29.642c-0,-10.462 2.034,-20.342 6.102,-29.642c4.069,-9.299 9.59,-17.436 16.565,-24.411c6.974,-6.974 15.053,-12.496 24.236,-16.564c9.184,-4.068 19.006,-6.103 29.468,-6.103c16.506,0 30.862,4.941 43.067,14.821c12.206,9.881 20.982,22.842 26.329,38.883c-7.207,2.557 -15.46,5.696 -24.759,9.416c-9.3,3.719 -18.948,7.614 -28.945,11.682c-9.996,4.068 -19.993,8.079 -29.99,12.031c-9.997,3.952 -19.296,7.556 -27.898,10.811c3.952,7.904 9.706,14.239 17.262,19.005c7.556,4.766 15.983,7.149 25.283,7.149c6.277,0 12.612,-1.162 19.005,-3.487c6.393,-2.325 11.566,-5.464 15.518,-9.416l22.319,21.621Zm-25.108,-85.786c-2.79,-5.813 -7.207,-10.172 -13.252,-13.078c-6.045,-2.906 -12.205,-4.359 -18.482,-4.359c-6.743,0 -12.961,1.279 -18.657,3.836c-5.696,2.558 -10.636,5.987 -14.821,10.288c-4.185,4.301 -7.498,9.241 -9.939,14.821c-2.441,5.579 -3.662,11.275 -3.662,17.087c0,1.163 0.059,1.976 0.175,2.441c0.116,0.465 0.174,0.814 0.174,1.046c6.045,-2.324 12.612,-4.94 19.703,-7.846c7.091,-2.906 14.124,-5.812 21.098,-8.718c6.975,-2.906 13.717,-5.696 20.226,-8.37c6.51,-2.673 12.322,-5.056 17.437,-7.148Z" style="fill-rule:nonzero;stroke:#000;stroke-width:8.33px;"/><path d="M2080.23,163.394l29.642,-0l-0,64.514l39.057,-0l0,26.503l-39.057,0l-0,118.916l-29.642,-0l0,-118.916l-26.154,0l-0,-26.503l26.154,-0l0,-64.514Z" style="fill-rule:nonzero;stroke:#000;stroke-width:8.33px;"/><rect x="2174.03" y="102.367" width="29.642" height="270.96" style="fill-rule:nonzero;stroke:#000;stroke-width:8.33px;"/><path d="M2285.97,443.421l-29.99,-0c3.255,-6.742 6.335,-13.194 9.241,-19.355c2.906,-6.16 5.812,-12.438 8.718,-18.831c2.907,-6.393 5.871,-13.019 8.893,-19.877c3.022,-6.858 6.393,-14.24 10.113,-22.144c-5.347,-10.462 -10.81,-21.447 -16.39,-32.955c-5.58,-11.508 -11.159,-23.074 -16.739,-34.698c-5.58,-11.624 -11.101,-23.249 -16.564,-34.873c-5.464,-11.624 -10.869,-22.667 -16.216,-33.129l32.431,0c8.37,16.507 15.286,30.456 20.75,41.847c5.463,11.392 9.996,21.215 13.6,29.468c3.603,8.253 6.509,15.286 8.718,21.098c2.209,5.812 4.127,11.159 5.754,16.041c1.86,-4.882 3.894,-10.229 6.103,-16.041c2.208,-5.812 5.114,-12.845 8.718,-21.098c3.603,-8.253 8.137,-18.076 13.6,-29.468c5.464,-11.391 12.38,-25.34 20.749,-41.847l32.432,0l-103.921,215.862Z" style="fill-rule:nonzero;stroke:#000;stroke-width:8.33px;"/></g></g></g></g></svg>